<svg width="28" height="28" viewBox="0 0 28 28" fill="none" xmlns="http://www.w3.org/2000/svg">
<path fill-rule="evenodd" clip-rule="evenodd" d="M19.407 12.2277C19.3946 12.364 19.3886 12.4655 19.3778 12.6894L19.3722 12.8061L19.4696 12.8707C19.5795 12.9438 19.7349 12.9885 19.9263 12.996L19.9359 12.9964L19.9455 12.9959C20.2411 12.98 20.5768 12.8849 20.9283 12.7164C21.0182 12.6715 21.1255 12.6525 21.2392 12.6525C21.3635 12.6525 21.49 12.6766 21.5944 12.7205L21.6006 12.7231L21.607 12.7254C21.9174 12.8327 22.1019 13.0436 22.1068 13.265C22.1119 13.5552 21.8167 13.8402 21.1775 14.0933C21.1055 14.1234 21.016 14.1543 20.8902 14.1936C20.5632 14.2967 20.3801 14.3633 20.1831 14.4634C19.8918 14.6113 19.6877 14.7878 19.591 15.0167C19.4758 15.2762 19.5119 15.5848 19.6793 15.9322L19.6949 15.9699C19.7094 16.005 19.7393 16.0707 19.7773 16.1483C19.8342 16.2642 19.9019 16.392 19.9804 16.5284C20.1977 16.9065 20.4604 17.2887 20.7701 17.6539C21.6474 18.6887 22.7336 19.4013 24.0401 19.6164C24.1543 19.6348 24.2381 19.7371 24.2333 19.8519C24.2271 19.9039 24.2163 19.9483 24.2013 19.9822C24.022 20.3928 23.1597 20.744 21.5937 20.9848L21.5088 20.9978L21.4584 21.0674C21.4568 21.0696 21.4568 21.0696 21.4552 21.0719C21.4025 21.147 21.3654 21.2621 21.3214 21.4446C21.3073 21.5028 21.2973 21.5478 21.2767 21.6427C21.2092 21.9396 21.1986 21.9837 21.1609 22.113C21.1167 22.2633 21.0287 22.3295 20.8744 22.3295H20.8464C20.725 22.3295 20.5772 22.3133 20.4125 22.2779C19.9932 22.1941 19.6587 22.1541 19.2538 22.1541C19.0013 22.1541 18.7337 22.1787 18.4227 22.2267C18.1471 22.2744 17.8859 22.3757 17.6025 22.5348C17.3893 22.6544 17.2194 22.7683 16.8338 23.0408C16.2712 23.4402 15.9987 23.6145 15.6269 23.7868C15.1363 24.0141 14.6343 24.1326 14.0692 24.1326C14.0514 24.1326 14.0335 24.1318 14.0005 24.1295C13.9514 24.1262 13.9386 24.1255 13.9147 24.1255H13.8942L13.874 24.1296C13.8666 24.1311 13.8561 24.132 13.8399 24.1324C13.8322 24.1326 13.8255 24.1326 13.8095 24.1326C13.3043 24.1326 12.8481 24.0364 12.4055 23.852C12.0508 23.7043 11.7319 23.5166 11.3024 23.2205C11.2327 23.1724 11.215 23.1601 11.0442 23.0403C10.2962 22.5045 9.95238 22.3116 9.45933 22.2272C9.19349 22.1783 8.90934 22.1541 8.62491 22.1541C8.22284 22.1541 7.89221 22.1976 7.46797 22.2846L7.46317 22.2857C7.27278 22.3295 7.13586 22.3506 7.03225 22.3506C6.84515 22.3506 6.76072 22.2745 6.7177 22.1269C6.69662 22.0546 6.67703 21.9782 6.65565 21.8868C6.64291 21.8324 6.60055 21.6433 6.60158 21.6478C6.58139 21.5549 6.57132 21.5098 6.55728 21.4517C6.51229 21.2653 6.47472 21.1496 6.41995 21.0743L6.36948 21.0048L6.28464 20.9918C4.71567 20.7514 3.85726 20.4012 3.67789 19.9904C3.66236 19.9554 3.65159 19.9109 3.64538 19.859C3.64055 19.7442 3.72433 19.6419 3.83774 19.6236C5.06805 19.4206 6.10559 18.7741 6.96047 17.8269C7.31241 17.4369 7.61079 17.02 7.85828 16.6004C7.94714 16.4497 8.02387 16.3079 8.08908 16.1774C8.113 16.1296 8.13403 16.0859 8.15252 16.0461C8.16459 16.0201 8.17004 16.008 8.1816 15.982L8.19935 15.9421V15.938C8.35945 15.591 8.39545 15.2844 8.28894 15.0269C8.19241 14.7961 7.98785 14.6189 7.69551 14.4705C7.49855 14.3704 7.3163 14.3041 6.98902 14.2007C6.83738 14.1501 6.77125 14.1273 6.69919 14.0996C6.28148 13.9343 6.01464 13.7542 5.87676 13.5715C5.77937 13.4424 5.7527 13.3216 5.77536 13.1999C5.82752 12.9156 6.21537 12.6665 6.59024 12.6665C6.67241 12.6665 6.75577 12.6848 6.83584 12.7187C7.22726 12.9029 7.57858 12.9962 7.88827 12.9962C8.09992 12.9962 8.27628 12.9504 8.40078 12.8759L8.50574 12.8131L8.50072 12.6908C8.49524 12.5575 8.49303 12.5065 8.48943 12.4356C8.48448 12.3382 8.47904 12.2529 8.47239 12.1725C8.47116 12.1517 8.46947 12.1231 8.46661 12.0747C8.46424 12.0348 8.46241 12.0038 8.46064 11.9735C8.42841 11.4251 8.41175 11.0826 8.40262 10.7212C8.37162 9.49392 8.46054 8.6158 8.72187 8.02594C9.31801 6.68526 10.2467 5.80265 11.4038 5.29209C12.2035 4.93919 13.0139 4.80186 13.7182 4.80186H14.1323C14.8406 4.80186 15.653 4.93906 16.4568 5.29222C17.6188 5.80279 18.5558 6.68584 19.1646 8.02761C19.3669 8.47745 19.4691 9.11089 19.49 9.92795C19.5057 10.5419 19.4835 11.0743 19.4134 12.1693L19.407 12.2277Z" fill="#FFFC00"/>
<path fill-rule="evenodd" clip-rule="evenodd" d="M14.1323 5.03096C14.925 5.03096 17.6471 5.24142 18.931 8.11795C19.3521 9.06504 19.2468 10.7838 19.1556 12.159C19.1416 12.3765 19.1274 12.587 19.1205 12.7904L19.1134 12.8747L19.1696 12.9377C19.1907 12.9657 19.4151 13.1904 19.8993 13.2113H19.9062H19.9133C20.2359 13.1973 20.6009 13.0991 20.9936 12.9167C21.0498 12.8887 21.127 12.8747 21.2112 12.8747C21.3024 12.8747 21.4006 12.8956 21.4847 12.9237L21.4989 12.9307C21.7093 13.0008 21.8497 13.1411 21.8566 13.2674C21.8566 13.3376 21.8075 13.5902 21.0709 13.8779C21.0007 13.9059 20.9026 13.9339 20.7973 13.969C20.3202 14.1235 19.5976 14.3479 19.3521 14.9232C19.2118 15.2459 19.2538 15.6247 19.4642 16.0527C19.5484 16.2563 20.9166 19.3291 23.9825 19.8342C23.9825 19.8484 23.9754 19.8624 23.9683 19.8834C23.9192 20.0027 23.5825 20.4307 21.5269 20.7464C21.2041 20.7955 21.127 21.1602 21.0358 21.5742C21.0007 21.7215 20.9727 21.8758 20.9235 22.0303C20.9095 22.0793 20.9095 22.0793 20.8533 22.0793H20.8324C20.7412 22.0793 20.6009 22.0582 20.4395 22.0303C20.1449 21.9741 19.7448 21.9039 19.2398 21.9039C18.9521 21.9039 18.6574 21.9319 18.3697 21.9741C17.7383 22.0793 17.2262 22.4441 16.686 22.823C15.9563 23.3352 15.2057 23.8683 14.055 23.8683C14.0059 23.8683 13.9569 23.8683 13.9078 23.8614H13.8938H13.8796H13.7955C12.6448 23.8614 11.8942 23.3281 11.1647 22.816C10.6243 22.4301 10.1122 22.0722 9.48077 21.967C9.18615 21.9179 8.89153 21.8969 8.61091 21.8969C8.09874 21.8969 7.69873 21.9741 7.41119 22.0303C7.2498 22.0653 7.10949 22.0862 7.01826 22.0862C6.94102 22.0862 6.94102 22.0793 6.92702 22.0303C6.87795 21.8758 6.84995 21.7146 6.81487 21.5672C6.72364 21.1462 6.6464 20.7815 6.32362 20.7322C4.26804 20.4165 3.93834 19.9887 3.88219 19.8693C3.87511 19.8484 3.86819 19.8342 3.86819 19.8202C6.94102 19.3151 8.30213 16.2421 8.38629 16.0387C8.59675 15.6107 8.63183 15.2319 8.4986 14.9092C8.25305 14.3339 7.53042 14.1093 7.05333 13.955C6.94102 13.9199 6.84995 13.8919 6.77979 13.8638C6.16239 13.6182 5.96593 13.3727 5.99393 13.2254C6.029 13.0501 6.32362 12.8747 6.58333 12.8747C6.63932 12.8747 6.69548 12.8816 6.73056 12.9027C7.15149 13.0991 7.54442 13.2044 7.8812 13.2044C8.41444 13.2044 8.65291 12.9588 8.68106 12.9307L8.73706 12.8676L8.73014 12.7834C8.71614 12.5799 8.70906 12.3694 8.69506 12.152C8.61091 10.7698 8.4986 9.05797 8.91953 8.11087C10.1963 5.24142 12.9115 5.02388 13.7113 5.02388H14.0761C14.1043 5.03096 14.1183 5.03096 14.1323 5.03096M14.1323 4.59602V4.59602H14.0832H13.7182C12.8555 4.59602 9.9157 4.83449 8.53367 7.94256C8.07059 8.98781 8.1829 10.7628 8.26705 12.1871C8.28105 12.3554 8.28813 12.5308 8.29505 12.6993C8.2249 12.7413 8.09166 12.7904 7.88828 12.7904C7.61458 12.7904 7.2918 12.7062 6.9201 12.5308C6.82179 12.4887 6.70948 12.4607 6.59025 12.4607C6.16239 12.4607 5.65023 12.7413 5.57299 13.1622C5.51684 13.4639 5.65023 13.9059 6.62532 14.2918C6.71656 14.3269 6.82179 14.3619 6.92702 14.397C7.32688 14.5233 7.93735 14.7198 8.09874 15.1056C8.1829 15.309 8.14782 15.5687 8.00043 15.8773C8.00043 15.8844 7.99351 15.8913 7.99351 15.8984C7.93735 16.0247 6.65348 18.9503 3.80495 19.4204C3.58757 19.4554 3.42618 19.6519 3.44018 19.8764C3.44726 19.9394 3.46125 20.0096 3.48925 20.0728C3.7068 20.571 4.60482 20.9427 6.25347 21.1953C6.30962 21.2725 6.36578 21.5321 6.40086 21.6935C6.43594 21.8478 6.47101 22.0161 6.52009 22.1846C6.56917 22.3529 6.69548 22.5564 7.03226 22.5564C7.16565 22.5564 7.32688 22.5283 7.50934 22.4863C7.78304 22.4301 8.16182 22.36 8.62491 22.36C8.88445 22.36 9.15799 22.381 9.42462 22.4301C9.95786 22.5213 10.4069 22.837 10.926 23.2089C11.6767 23.7351 12.5187 24.3385 13.8095 24.3385C13.8446 24.3385 13.8796 24.3385 13.9147 24.3314C13.9569 24.3314 14.013 24.3385 14.0692 24.3385C15.36 24.3385 16.2018 23.742 16.9526 23.2089C17.4788 22.837 17.9277 22.5213 18.454 22.4301C18.7276 22.388 18.9942 22.36 19.2538 22.36C19.7028 22.36 20.0536 22.4161 20.3693 22.4792C20.5658 22.5213 20.7272 22.5353 20.8464 22.5353H20.8604H20.8744C21.1199 22.5353 21.2884 22.409 21.3586 22.1706C21.4076 22.0021 21.4427 21.8407 21.4778 21.6864C21.5129 21.525 21.569 21.2655 21.625 21.1882C23.2668 20.9358 24.1719 20.5639 24.3894 20.0657C24.4174 20.0027 24.4314 19.9325 24.4385 19.8693C24.4525 19.6448 24.2911 19.4483 24.0736 19.4133C21.2183 18.9433 19.9344 16.0106 19.8852 15.8913C19.8852 15.8844 19.8782 15.8773 19.8782 15.8703C19.7238 15.5616 19.6887 15.3021 19.7799 15.0986C19.9413 14.7127 20.5516 14.5162 20.9516 14.3901C21.0638 14.355 21.169 14.3199 21.2533 14.2847C21.9618 14.0041 22.3197 13.6604 22.3126 13.2605C22.3057 12.9448 22.0601 12.6642 21.6743 12.5308C21.5409 12.4747 21.3866 12.4467 21.2392 12.4467C21.1339 12.4467 20.9796 12.4607 20.8393 12.5308C20.5026 12.6922 20.1939 12.7764 19.9344 12.7904C19.7588 12.7834 19.6467 12.7413 19.5835 12.6993C19.5905 12.5519 19.5976 12.4045 19.6116 12.2502L19.6185 12.1871C19.7098 10.7628 19.8221 8.98781 19.3521 7.94256C17.9419 4.83449 15.0023 4.59602 14.1323 4.59602" fill="black"/>
</svg>
