<svg width="28" height="28" viewBox="0 0 28 28" fill="none" xmlns="http://www.w3.org/2000/svg">
<g clip-path="url(#clip0_3_364)">
<path d="M14 28C21.732 28 28 21.732 28 14C28 6.26801 21.732 0 14 0C6.26801 0 0 6.26801 0 14C0 21.732 6.26801 28 14 28Z" fill="url(#paint0_linear_3_364)"/>
<path fill-rule="evenodd" clip-rule="evenodd" d="M6.3372 13.8522C10.4185 12.0741 13.14 10.9018 14.5017 10.3354C18.3896 8.71828 19.1975 8.43737 19.7241 8.42809C19.8399 8.42605 20.0988 8.45475 20.2666 8.59086C20.4082 8.70579 20.4472 8.86104 20.4658 8.97C20.4845 9.07896 20.5077 9.32718 20.4892 9.52113C20.2786 11.7349 19.3669 17.107 18.9031 19.5864C18.7069 20.6355 18.3204 20.9873 17.9463 21.0217C17.1333 21.0965 16.516 20.4844 15.7285 19.9683C14.4964 19.1606 13.8003 18.6578 12.6042 17.8696C11.222 16.9587 12.118 16.4581 12.9057 15.6399C13.1119 15.4258 16.694 12.1676 16.7634 11.872C16.772 11.835 16.7801 11.6972 16.6982 11.6245C16.6164 11.5517 16.4955 11.5766 16.4083 11.5964C16.2848 11.6244 14.3163 12.9255 10.5031 15.4996C9.94434 15.8832 9.43826 16.0702 8.98482 16.0604C8.48495 16.0496 7.5234 15.7777 6.80858 15.5454C5.93183 15.2604 5.23501 15.1097 5.29568 14.6257C5.32729 14.3736 5.67446 14.1158 6.3372 13.8522Z" fill="white"/>
</g>
<defs>
<linearGradient id="paint0_linear_3_364" x1="14" y1="0" x2="14" y2="27.7923" gradientUnits="userSpaceOnUse">
<stop stop-color="#2AABEE"/>
<stop offset="1" stop-color="#229ED9"/>
</linearGradient>
<clipPath id="clip0_3_364">
<rect width="28" height="28" fill="white"/>
</clipPath>
</defs>
</svg>
