<svg width="28" height="28" viewBox="0 0 28 28" fill="none" xmlns="http://www.w3.org/2000/svg">
<path d="M-1.52588e-05 28L1.96815 20.8098C0.75365 18.7052 0.115484 16.3193 0.116651 13.8728C0.120151 6.22417 6.3443 0 13.9918 0C17.7029 0.00116667 21.1866 1.44667 23.8069 4.06933C26.4261 6.692 27.8681 10.178 27.8669 13.8857C27.8634 21.5355 21.6393 27.7597 13.9918 27.7597C11.6701 27.7585 9.3823 27.1763 7.3558 26.0703L-1.52588e-05 28ZM7.69647 23.5585C9.6518 24.7193 11.5185 25.4147 13.9871 25.4158C20.3431 25.4158 25.5208 20.2428 25.5243 13.8833C25.5266 7.511 20.3734 2.345 13.9965 2.34267C7.6358 2.34267 2.46165 7.51567 2.45931 13.874C2.45815 16.4698 3.21881 18.4135 4.49631 20.447L3.33081 24.703L7.69647 23.5585ZM20.9813 17.1838C20.8949 17.0392 20.6639 16.9528 20.3163 16.779C19.9698 16.6052 18.2653 15.7663 17.9468 15.6508C17.6294 15.5353 17.3984 15.477 17.1663 15.8247C16.9353 16.1712 16.2703 16.9528 16.0684 17.1838C15.8666 17.4148 15.6636 17.444 15.3171 17.2702C14.9706 17.0963 13.853 16.7312 12.5288 15.5493C11.4986 14.63 10.8021 13.4948 10.6003 13.1472C10.3985 12.8007 10.5793 12.6128 10.752 12.4402C10.9083 12.285 11.0985 12.0353 11.2723 11.8323C11.4485 11.6317 11.5056 11.487 11.6223 11.2548C11.7378 11.0238 11.6806 10.8208 11.5931 10.647C11.5056 10.4743 10.8126 8.7675 10.5245 8.07333C10.2421 7.39783 9.9563 7.48883 9.74396 7.47833L9.07896 7.46667C8.84796 7.46667 8.4723 7.553 8.15497 7.90067C7.83763 8.24833 6.94164 9.086 6.94164 10.7928C6.94164 12.4997 8.18413 14.1482 8.3568 14.3792C8.53063 14.6102 10.801 18.1125 14.2788 19.614C15.1059 19.971 15.7523 20.1845 16.2551 20.3443C17.0858 20.608 17.8418 20.5707 18.4391 20.482C19.1053 20.3828 20.4901 19.6432 20.7794 18.8335C21.0688 18.0227 21.0688 17.3285 20.9813 17.1838Z" fill="#25D366"/>
</svg>
