<svg xmlns="http://www.w3.org/2000/svg" width="78" height="78" viewBox="0 0 78 78" fill="none">
  <path d="M51.3537 29.2241L29.4238 54.8087L26.647 52.4308L48.5769 26.8477L51.3537 29.2241ZM28.0359 39.0003C23.9994 39.0003 20.7259 35.7267 20.7259 31.6902C20.7259 27.6531 23.9994 24.3802 28.0359 24.3802C32.073 24.3802 35.346 27.6531 35.346 31.6902C35.346 35.7267 32.073 39.0003 28.0359 39.0003ZM28.0359 35.3453C30.0491 35.3453 31.691 33.7064 31.691 31.6902C31.691 29.6741 30.0485 28.0352 28.0359 28.0352C26.0233 28.0352 24.3809 29.6741 24.3809 31.6902C24.3809 33.7064 26.0227 35.3453 28.0359 35.3453ZM57.2768 49.9649C57.2768 54.0014 54.0026 57.2739 49.9667 57.2739C45.9296 57.2739 42.6567 54.0004 42.6567 49.9649C42.6567 45.9278 45.9302 42.6549 49.9667 42.6549C54.0026 42.6549 57.2768 45.9278 57.2768 49.9649ZM53.6212 49.9649C53.6212 47.9482 51.9787 46.3093 49.9661 46.3093C47.9529 46.3093 46.3105 47.9482 46.3105 49.9649C46.3105 51.9811 47.9529 53.62 49.9661 53.62C51.9787 53.62 53.6212 51.9811 53.6212 49.9649ZM69.34 47.1288C68.7265 48.6195 72.8736 54.3186 70.6581 57.2822C68.1843 60.5873 62.2167 60.085 61.2069 61.2026C59.9042 62.6427 60.6463 68.7537 57.2846 70.6538C53.742 72.3599 48.6176 68.7882 47.1335 69.3381C44.5418 70.3509 43.1713 75.5479 39.0021 75.5479C34.8329 75.5479 33.4631 70.351 30.8708 69.3381C29.1022 68.8763 24.5473 72.3428 20.7197 70.6538C17.3574 68.7526 18.1001 62.6427 16.7974 61.2026C15.7875 60.085 9.8193 60.5861 7.34615 57.2822C5.1294 54.3198 9.27726 48.6201 8.66309 47.1288C7.76391 44.9394 2.45264 42.9977 2.45264 39.0005C2.45264 35.0033 7.7638 33.0615 8.6637 30.8716C9.27782 29.382 5.13008 23.6817 7.34676 20.7186C9.82052 17.4135 15.7881 17.9152 16.798 16.7982C18.1007 15.3581 17.3574 9.24712 20.7203 7.34693C24.1087 5.63307 29.1063 9.06324 30.8714 8.66149C33.4625 7.64806 34.8329 2.45105 39.0021 2.45105C43.1713 2.45105 44.5412 7.64795 47.1335 8.66088C48.72 9.2042 54.0365 5.67114 57.2846 7.34632C60.6462 9.24651 59.9042 15.3575 61.2069 16.7976C62.2167 17.9152 68.185 17.4129 70.6581 20.718C72.8749 23.6803 68.727 29.3807 69.34 30.8709C70.2398 33.0609 75.551 35.0027 75.551 38.9999C75.5505 42.9977 70.2393 44.9394 69.34 47.1288ZM71.8959 39.0005C71.8959 37.0718 67.3999 36.0203 65.77 31.6904C64.8083 29.1362 68.2474 23.7906 67.6487 22.7496C66.318 20.9989 60.9259 21.8022 58.4968 19.2476C56.367 17.0099 56.806 11.3548 55.5017 10.5384C54.1758 9.8213 49.3979 12.9044 46.3545 12.2385C41.9889 10.7716 40.8933 6.1067 39.0015 6.1067C37.1097 6.1067 36.0136 10.7716 31.6478 12.2385C28.6057 12.9044 23.8277 9.8213 22.5007 10.539C21.1974 11.3555 21.6354 17.0106 19.5056 19.2482C17.0765 21.8034 11.6842 20.9995 10.3543 22.7503C9.75621 23.7905 13.1941 29.1368 12.233 31.691C10.6037 36.0203 6.10709 37.0712 6.10709 39.0005C6.10709 40.9291 10.6031 41.9806 12.2336 46.3095C13.1947 48.8637 9.75679 54.2105 10.3549 55.2502C11.6849 57.0003 17.0771 56.1964 19.5062 58.7523C21.636 60.9899 21.198 66.6438 22.5013 67.4615C23.8283 68.1791 28.6063 65.096 31.6485 65.7619C36.014 67.2288 37.1103 71.8938 39.0021 71.8938C40.8939 71.8938 41.99 67.2288 46.3551 65.7619C49.3979 65.096 54.1758 68.1792 55.5023 67.4615C56.8061 66.645 56.3676 60.9899 58.4974 58.7523C60.9265 56.197 66.3175 57.0009 67.6493 55.2502C68.2474 54.21 64.8088 48.8637 65.7706 46.3095C67.3993 41.9808 71.8959 40.9293 71.8959 39.0005Z" fill="white"/>
</svg>