<svg width="48" height="40" viewBox="0 0 48 40" fill="none" xmlns="http://www.w3.org/2000/svg">
<path d="M37.721 25L43.265 11.14L41.367 10.6125L36.279 23.3333H17.721L10.721 5.83334H5V7.50001H9.279L15.929 24.1233L11.461 32.5H39V30.8333H14.539L17.65 25H37.721Z" fill="black"/>
<path d="M20 36.6667C21.1046 36.6667 22 35.9205 22 35C22 34.0795 21.1046 33.3333 20 33.3333C18.8954 33.3333 18 34.0795 18 35C18 35.9205 18.8954 36.6667 20 36.6667Z" fill="black"/>
<path d="M32 36.6667C33.1046 36.6667 34 35.9205 34 35C34 34.0795 33.1046 33.3333 32 33.3333C30.8954 33.3333 30 34.0795 30 35C30 35.9205 30.8954 36.6667 32 36.6667Z" fill="black"/>
</svg>
